<svg width="24" height="24" viewBox="0 0 24 24" fill="none" xmlns="http://www.w3.org/2000/svg">
  <rect x="3" y="11" width="18" height="11" rx="2" stroke="#f7931a" stroke-width="2" stroke-linecap="round" stroke-linejoin="round"/>
  <path d="M7 11V7C7 5.67392 7.52678 4.40215 8.46447 3.46447C9.40215 2.52678 10.6739 2 12 2C13.3261 2 14.5979 2.52678 15.5355 3.46447C16.4732 4.40215 17 5.67392 17 7V11" stroke="#f7931a" stroke-width="2" stroke-linecap="round" stroke-linejoin="round"/>
  <path d="M12 16C12.5523 16 13 15.5523 13 15C13 14.4477 12.5523 14 12 14C11.4477 14 11 14.4477 11 15C11 15.5523 11.4477 16 12 16Z" fill="#f7931a" stroke="#f7931a" stroke-width="2" stroke-linecap="round" stroke-linejoin="round"/>
</svg> 