<svg viewBox="0 0 126 126" fill="none" xmlns="http://www.w3.org/2000/svg">
  <path d="M38.4823 52.8567L62.9737 28.3653L87.486 52.8776L101.254 39.1103L62.9737 0.83L24.6727 39.1311L38.4823 52.8567Z" fill="#F3BA2F"/>
  <path d="M0.75 63.115L14.4938 49.3711L28.2799 63.1573L14.4938 76.9012L0.75 63.115Z" fill="#F3BA2F"/>
  <path d="M38.4823 73.3732L62.9737 97.8646L87.486 73.3523L101.274 87.0987L101.254 87.1196L62.9737 125.4L24.6727 87.0989L24.6312 87.0574L38.4823 73.3732Z" fill="#F3BA2F"/>
  <path d="M101.254 63.1573L115.035 49.3711L128.779 63.115L115.035 76.9012L101.254 63.1573Z" fill="#F3BA2F"/>
  <path d="M76.8 63.1147L62.9737 49.2883L52.5905 59.6715L49.1476 63.1144L52.5905 66.5573L62.9737 76.9404L76.8 63.1147Z" fill="#F3BA2F"/>
</svg> 