<svg xmlns="http://www.w3.org/2000/svg" viewBox="0 0 168 168" fill="none">
  <path d="M84 167C130.392 167 168 129.392 168 83C168 36.6081 130.392 -1 84 -1C37.6081 -1 0 36.6081 0 83C0 129.392 37.6081 167 84 167Z" fill="#0052FF"/>
  <path d="M84.0001 41.4121C60.5781 41.4121 41.4121 60.5781 41.4121 84.0001C41.4121 107.422 60.5781 126.588 84.0001 126.588C107.422 126.588 126.588 107.422 126.588 84.0001C126.588 60.5781 107.422 41.4121 84.0001 41.4121ZM58.1781 84.0001C58.1781 77.0393 61.2393 70.7837 66.1873 66.5193C70.1661 63.0217 75.4445 60.8569 81.1953 60.8569C90.8421 60.8569 99.1305 67.4353 101.599 76.5973H115.767C112.998 60.0889 99.8065 47.4553 83.1545 47.4553C76.8485 47.4553 70.9681 49.1657 65.9089 52.1533C59.2273 56.1637 54.0193 62.2969 51.2193 69.6569C50.0281 73.2257 49.3521 77.0393 49.3521 84.0001C49.3521 90.9609 50.0281 94.7745 51.2193 98.3433C54.0193 105.703 59.2273 111.836 65.9089 115.847C70.9681 118.834 76.8485 120.545 83.1545 120.545C99.8065 120.545 112.998 107.911 115.767 91.4029H101.599C99.1305 100.565 90.8421 107.143 81.1953 107.143C75.4445 107.143 70.1661 104.978 66.1873 101.481C61.2393 97.2165 58.1781 90.9609 58.1781 84.0001Z" fill="white"/>
</svg> 