<svg xmlns="http://www.w3.org/2000/svg" width="512" height="512" fill="none" viewBox="0 0 512 512"><path fill="#5841D8" d="M200.4 352.3C185.3 352.3 173 340 173 325V195.2C173 180.1 185.3 167.8 200.4 167.8H339.9C355 167.8 367.3 180.1 367.3 195.2V325C367.3 340.1 355 352.4 339.9 352.4L200.4 352.3Z"/><path fill="#fff" d="M330.4 293.3H331.4C335.3 293.3 338.4 290.1 338.4 286.3C338.4 282.4 335.2 279.3 331.4 279.3H330.4C326.5 279.3 323.4 282.5 323.4 286.3C323.4 290.2 326.6 293.3 330.4 293.3Z"/><path fill="#fff" d="M209 293.3H210C213.9 293.3 217 290.1 217 286.3C217 282.4 213.8 279.3 210 279.3H209C205.1 279.3 202 282.5 202 286.3C202 290.2 205.2 293.3 209 293.3Z"/><path fill="#fff" d="M286.9 248V248.1C286.9 252 290.1 255.1 293.9 255.1C297.8 255.1 300.9 251.9 300.9 248.1V248C300.9 244.1 297.7 241 293.9 241C290 241 286.9 244.2 286.9 248Z"/><path fill="#fff" d="M239.5 248V248.1C239.5 252 242.7 255.1 246.5 255.1C250.4 255.1 253.5 251.9 253.5 248.1V248C253.5 244.1 250.3 241 246.5 241C242.6 241 239.5 244.2 239.5 248Z"/><path fill="#fff" d="M278.2 312H262.7C262.4 312 262 311.6 262 311.3V302.3C262 302 262.4 301.6 262.7 301.6H278.2C278.5 301.6 278.9 302 278.9 302.3V311.3C279 311.6 278.6 312 278.2 312Z"/></svg>